#!OML:ASF X:\für Bonn\!DataBase\2005_08_10_Bjorn_Final\c3d\bjorn.ASF
:FULLY-SPECIFIED
:DEGREES
32
root 5.07271 22.76 3.43102 5.17855 0.531884 359.014
lowerback -10.192 1.44371 3.61524
upperback 5.38189 1.30754 0.831997
thorax 11.6518 0.863023 -0.867599
lowerneck 4.991 -2.8474 1.35587
upperneck 18.8847 -3.6055 -1.42697
head 4.81287 -1.7314 -0.761868
rclavicle 2.90226e-014 1.43125e-014
rhumerus -52.6937 -14.0759 -74.6348
rradius 124.362
rwrist -0.733166
rhand -37.9711 40.4936
rfingers 7.12502
rthumb -11.0114 10.8024
lclavicle 2.90226e-014 1.43125e-014
lhumerus -49.9771 -23.2104 89.9692
lradius 101.203
lwrist -6.27634
lhand -49.0022 -26.5867
lfingers 7.12502
lthumb -21.6312 2.225
rfemur -5.76076 -6.73225 11.6842
rtibia 39.195
rfoot 25.4966 1.50521
rtoes -30.1329
lfemur -4.72041 1.7766 -11.5578
ltibia 35.3521
lfoot 29.4358 -5.44023
ltoes -9.49212
33
root 5.07612 22.934 3.56925 4.98513 0.448558 359.04
lowerback -9.33878 1.39102 3.58933
upperback 5.70331 1.2675 0.881884
thorax 11.4951 0.842429 -0.81964
lowerneck 5.30736 -2.84074 1.31926
upperneck 19.3974 -3.58705 -1.43642
head 4.92195 -1.72112 -0.75924
rclavicle -1.21259e-014 -5.96354e-015
rhumerus -52.0052 -13.9324 -75.2068
rradius 122.637
rwrist -0.808034
rhand -37.5547 39.2256
rfingers 7.12502
rthumb -10.6098 9.51343
lclavicle -1.21259e-014 -5.96354e-015
lhumerus -48.8204 -23.3457 89.8273
lradius 99.8644
lwrist -5.8799
lhand -48.904 -25.7589
lfingers 7.12502
lthumb -21.5368 3.06371
rfemur -6.49725 -6.84978 11.825
rtibia 39.6346
rfoot 25.9205 1.29917
rtoes -29.8327
lfemur -5.21932 2.29273 -11.7044
ltibia 35.8194
lfoot 29.3704 -6.43495
ltoes -9.89306
34
root 5.07887 23.1047 3.70294 4.8869 0.37009 359.132
lowerback -8.42502 1.34211 3.51147
upperback 5.96711 1.24695 0.896785
thorax 11.2358 0.827054 -0.778968
lowerneck 5.61951 -2.79088 1.22576
upperneck 19.8796 -3.53535 -1.28618
head 5.02767 -1.69026 -0.696311
rclavicle -1.30204e-014 5.56597e-015
rhumerus -51.3751 -13.8397 -75.7871
rradius 120.581
rwrist -0.862411
rhand -37.4317 38.8277
rfingers 7.12502
rthumb -10.4911 9.1095
lclavicle -1.30204e-014 5.56597e-015
lhumerus -47.7671 -23.4925 89.6718
lradius 98.3111
lwrist -5.64005
lhand -48.7255 -24.7057
lfingers 7.12502
lthumb -21.3654 4.13644
rfemur -7.46252 -7.04429 11.9137
rtibia 40.0802
rfoot 26.3431 1.28118
rtoes -29.3272
lfemur -5.80666 2.85296 -11.9239
ltibia 36.0805
lfoot 29.3811 -7.12156
ltoes -10.7384
35
root 5.08251 23.2708 3.83193 4.783 0.280899 359.266
lowerback -7.41894 1.29091 3.38047
upperback 6.2536 1.23152 0.916575
thorax 10.9442 0.809745 -0.703705
lowerneck 5.86302 -2.69483 0.958021
upperneck 20.3212 -3.46439 -0.885921
head 5.1406 -1.6492 -0.526075
rclavicle 1.49089e-015 -3.97569e-015
rhumerus -50.7404 -13.7893 -76.336
rradius 118.276
rwrist -0.761216
rhand -37.3856 38.2147
rfingers 7.12502
rthumb -10.4467 8.49421
lclavicle 1.49089e-015 -3.97569e-015
lhumerus -46.8156 -23.5864 89.584
lradius 96.7577
lwrist -5.09553
lhand -48.4693 -24.0484
lfingers 7.12502
lthumb -21.1192 4.82138
rfemur -8.48378 -7.22863 11.9685
rtibia 40.5155
rfoot 26.5217 1.40121
rtoes -29.0955
lfemur -6.37498 3.2845 -12.2057
ltibia 36.1368
lfoot 29.3407 -7.26547
ltoes -12.0932
36
root 5.08718 23.4242 3.9569 4.58596 0.194759 359.368
lowerback -6.27165 1.22927 3.29163
upperback 6.60392 1.19815 0.945776
thorax 10.6394 0.787197 -0.646377
lowerneck 6.09716 -2.57371 0.60367
upperneck 20.6679 -3.38053 -0.378761
head 5.22851 -1.60316 -0.305958
rclavicle -1.87852e-014 -5.1684e-015
rhumerus -50.0367 -13.7314 -76.8842
rradius 115.906
rwrist -0.665979
rhand -37.3024 37.2721
rfingers 7.12502
rthumb -10.3664 7.54762
lclavicle -1.87852e-014 -5.1684e-015
lhumerus -45.8221 -23.4958 89.4236
lradius 95.0887
lwrist -4.77232
lhand -48.2056 -23.7203
lfingers 7.12502
lthumb -20.866 5.17755
rfemur -9.43257 -7.40238 12.039
rtibia 40.9221
rfoot 26.3917 1.56165
rtoes -28.7194
lfemur -6.83015 3.65569 -12.4467
ltibia 36.0125
lfoot 29.1555 -7.05996
ltoes -13.5374
37
root 5.09213 23.566 4.07885 4.40954 0.0891111 359.424
lowerback -5.09488 1.18371 3.25636
upperback 6.95371 1.17897 0.987928
thorax 10.3187 0.774695 -0.603062
lowerneck 6.37036 -2.47714 0.220733
upperneck 21.024 -3.33173 0.120196
head 5.31266 -1.57702 -0.0831207
rclavicle -5.96354e-015 1.59028e-015
rhumerus -49.3622 -13.7004 -77.4019
rradius 113.708
rwrist -0.909993
rhand -36.6918 36.3594
rfingers 7.12502
rthumb -9.77728 6.60635
lclavicle -5.96354e-015 1.59028e-015
lhumerus -44.8104 -23.3383 89.2363
lradius 93.1301
lwrist -4.84031
lhand -48.2864 -24.0505
lfingers 7.12502
lthumb -20.9436 4.83884
rfemur -10.4426 -7.61005 12.1641
rtibia 41.2801
rfoot 26.0217 1.98655
rtoes -28.6218
lfemur -7.31193 4.0303 -12.6527
ltibia 35.7567
lfoot 28.8478 -6.68388
ltoes -14.1993
38
root 5.09661 23.6958 4.19808 4.24343 -0.0196973 359.502
lowerback -3.87999 1.14255 3.19886
upperback 7.29905 1.16989 1.01553
thorax 9.97109 0.765684 -0.562167
lowerneck 6.7444 -2.42335 -0.0660865
upperneck 21.3492 -3.31698 0.467747
head 5.36642 -1.56958 0.07762
rclavicle -1.92821e-014 -8.34896e-015
rhumerus -48.6815 -13.7424 -77.9088
rradius 111.532
rwrist -0.984355
rhand -35.8495 35.4208
rfingers 7.12502
rthumb -8.96461 5.63131
lclavicle -1.92821e-014 -8.34896e-015
lhumerus -43.8809 -23.2552 89.073
lradius 91.199
lwrist -4.65054
lhand -48.4293 -24.6871
lfingers 7.12502
lthumb -21.0808 4.18699
rfemur -11.469 -7.76821 12.2794
rtibia 41.5512
rfoot 25.3497 2.43575
rtoes -28.82
lfemur -7.83349 4.44173 -12.8837
ltibia 35.4299
lfoot 28.4947 -6.30526
ltoes -13.6618
39
root 5.10082 23.8079 4.31315 4.08705 -0.12404 359.54
lowerback -2.65464 1.09769 3.1641
upperback 7.67487 1.15054 1.06412
thorax 9.65276 0.752848 -0.512202
lowerneck 7.18066 -2.39163 -0.314052
upperneck 21.5406 -3.31527 0.711983
head 5.36568 -1.57286 0.201161
rclavicle 1.68967e-014 1.98785e-015
rhumerus -47.9021 -13.7876 -78.3484
rradius 109.181
rwrist -0.577558
rhand -35.5445 34.7615
rfingers 7.12502
rthumb -8.6703 4.95954
lclavicle 1.68967e-014 1.98785e-015
lhumerus -42.9952 -23.1928 88.9404
lradius 89.3668
lwrist -4.14324
lhand -48.5513 -25.55
lfingers 7.12502
lthumb -21.1981 3.31095
rfemur -12.492 -7.9086 12.4537
rtibia 41.701
rfoot 24.4095 2.87003
rtoes -29.3443
lfemur -8.41452 4.85338 -13.071
ltibia 35.0886
lfoot 27.8248 -5.80629
ltoes -13.1477
40
root 5.10315 23.904 4.42836 3.90804 -0.243544 359.604
lowerback -1.40989 1.06067 3.07754
upperback 8.07366 1.14492 1.10689
thorax 9.34961 0.743266 -0.437701
lowerneck 7.71121 -2.35864 -0.446965
upperneck 21.5698 -3.29359 0.862023
head 5.29519 -1.56477 0.278534
rclavicle -7.15625e-015 -2.38542e-015
rhumerus -47.0424 -13.8226 -78.7977
rradius 106.722
rwrist -0.528855
rhand -35.3932 34.772
rfingers 7.12502
rthumb -8.52423 4.96408
lclavicle -7.15625e-015 -2.38542e-015
lhumerus -42.1587 -23.1293 88.8357
lradius 87.5682
lwrist -3.51548
lhand -48.0716 -25.2295
lfingers 7.12502
lthumb -20.7372 3.68251
rfemur -13.4422 -8.03483 12.6058
rtibia 41.7118
rfoot 23.414 3.27687
rtoes -29.9648
lfemur -9.01491 5.29278 -13.2826
ltibia 34.7727
lfoot 26.8567 -5.34391
ltoes -13.5661
41
root 5.10557 23.9851 4.54347 3.70595 -0.338649 359.676
lowerback -0.128053 1.03449 3.01286
upperback 8.46619 1.15468 1.11849
thorax 9.02222 0.743972 -0.407912
lowerneck 8.32299 -2.33717 -0.539152
upperneck 21.5497 -3.2944 1.0648
head 5.19718 -1.56272 0.366469
rclavicle 1.41137e-014 8.74653e-015
rhumerus -46.2282 -13.9024 -79.2573
rradius 104.285
rwrist -0.695689
rhand -35.1054 35.0161
rfingers 7.12502
rthumb -8.24654 5.19708
lclavicle 1.41137e-014 8.74653e-015
lhumerus -41.4125 -23.1483 88.7303
lradius 85.8782
lwrist -2.72162
lhand -47.3071 -24.4247
lfingers 7.12502
lthumb -20.0025 4.56573
rfemur -14.3078 -8.09332 12.7574
rtibia 41.6056
rfoot 22.4282 3.57294
rtoes -30.5287
lfemur -9.63239 5.68685 -13.4904
ltibia 34.5033
lfoot 25.7368 -4.88448
ltoes -14.1156
42
root 5.1073 24.057 4.66132 3.65262 -0.467225 359.749
lowerback 1.00253 1.02187 2.92113
upperback 8.79409 1.17691 1.1353
thorax 8.71539 0.747917 -0.354974
lowerneck 9.13195 -2.30748 -0.637485
upperneck 21.3492 -3.28301 1.27585
head 5.01223 -1.55756 0.461657
rclavicle 1.39149e-015 -2.78299e-015
rhumerus -45.4596 -13.9231 -79.6906
rradius 101.869
rwrist -0.875304
rhand -34.6101 34.5115
rfingers 7.12502
rthumb -7.76842 4.67416
lclavicle 1.39149e-015 -2.78299e-015
lhumerus -40.7793 -23.1691 88.7137
lradius 84.2375
lwrist -1.68845
lhand -46.5216 -23.9657
lfingers 7.12502
lthumb -19.2474 5.10182
rfemur -15.3212 -8.09554 12.9306
rtibia 41.4291
rfoot 21.4309 3.82593
rtoes -30.925
lfemur -10.436 6.15103 -13.7196
ltibia 34.2651
lfoot 24.5829 -4.48757
ltoes -14.6239
43
root 5.10998 24.1229 4.78197 3.87351 -0.571344 359.799
lowerback 1.78564 1.00597 2.85625
upperback 9.13606 1.17821 1.14958
thorax 8.63158 0.745267 -0.313479
lowerneck 9.72489 -2.26699 -0.677133
upperneck 21.1066 -3.24629 1.4304
head 4.84652 -1.53878 0.526504
rclavicle -7.95139e-016 4.37326e-015
rhumerus -44.5288 -13.9887 -80.1293
rradius 99.4699
rwrist -1.08664
rhand -33.9423 33.5875
rfingers 7.12502
rthumb -7.1239 3.72735
lclavicle -7.95139e-016 4.37326e-015
lhumerus -40.0633 -23.1915 88.6424
lradius 82.7216
lwrist -0.566457
lhand -45.7359 -23.5955
lfingers 7.12502
lthumb -18.4917 5.54562
rfemur -16.6187 -8.14699 13.1578
rtibia 41.2195
rfoot 20.4062 4.16272
rtoes -31.3174
lfemur -11.5313 6.59832 -13.9668
ltibia 34.0069
lfoot 23.4174 -4.07338
ltoes -14.8208
44
root 5.11373 24.1812 4.90356 4.16155 -0.687595 359.846
lowerback 2.43872 0.981433 2.78261
upperback 9.58031 1.15879 1.1759
thorax 8.73854 0.733039 -0.250445
lowerneck 9.81036 -2.21619 -0.722923
upperneck 20.9211 -3.18737 1.50608
head 4.77597 -1.51109 0.560596
rclavicle -1.05356e-014 3.57812e-015
rhumerus -43.3574 -14.0187 -80.588
rradius 97.0737
rwrist -1.25252
rhand -33.3418 32.7573
rfingers 7.12502
rthumb -6.54415 2.87844
lclavicle -1.05356e-014 3.57812e-015
lhumerus -39.2608 -23.1006 88.4787
lradius 81.2955
lwrist -0.0983114
lhand -45.3206 -23.1962
lfingers 7.12502
lthumb -18.0921 5.9824
rfemur -17.9789 -8.13414 13.3864
rtibia 40.9993
rfoot 19.3267 4.3942
rtoes -31.4022
lfemur -12.7264 7.02883 -14.2335
ltibia 33.7165
lfoot 22.4278 -3.65239
ltoes -14.6908
